<?xml version="1.0" standalone="no"?>
<!DOCTYPE svg PUBLIC "-//W3C//DTD SVG 1.1//EN" "http://www.w3.org/Graphics/SVG/1.1/DTD/svg11.dtd" >
<!--
2013-9-30: Created.
-->
<svg>
<metadata>
Created by iconfont
</metadata>
<defs>

<font id="iconfont" horiz-adv-x="1024" >
  <font-face
    font-family="iconfont"
    font-weight="500"
    font-stretch="normal"
    units-per-em="1024"
    ascent="896"
    descent="-128"
  />
    <missing-glyph />
    
    <glyph glyph-name="update" unicode="&#58894;" d="M774.5 0h-525c-67 0-121.5 52.2-121.5 116.3V192c0 26.5 21.5 48 48 48s48-21.5 48-48v-75.7c0-11 11.7-20.3 25.5-20.3h525c13.8 0 25.5 9.3 25.5 20.3V192c0 26.5 21.5 48 48 48s48-21.5 48-48v-75.7c0-64.1-54.5-116.3-121.5-116.3zM512 209.79999999999995c-26.5 0-48 21.5-48 48v432c0 26.5 21.5 48 48 48s48-21.5 48-48v-432c0-26.5-21.5-48-48-48zM628.3 555.8c-12.3 0-24.6 4.7-33.9 14.1L512 652.1l-82.3-82.3c-18.8-18.8-49.1-18.8-67.9 0s-18.8 49.1 0 67.9L478.1 754c18.8 18.8 49.1 18.8 67.9 0l116.3-116.3c18.8-18.8 18.8-49.1 0-67.9-9.5-9.4-21.8-14-34-14z"  horiz-adv-x="1024" />

    
    <glyph glyph-name="suggest" unicode="&#58988;" d="M337.36192-18.687999999999988c-3.5584 0-7.13728 0.75776-10.496 2.304-8.89856 4.096-14.61248 12.99968-14.61248 22.8096L312.25344 113.45920000000001c0 13.29152-10.81344 24.09984-24.12544 24.09984l-122.88 0c-41.00096 0-74.35264 33.3568-74.35264 74.33216L90.89536 660.3008c0 40.9856 33.35168 74.33728 74.35264 74.33728l708.80768 0c40.97536 0 74.32704-33.35168 74.32704-74.33728l0-448.41472c0-40.97536-33.35168-74.33216-74.32704-74.33216l-336.19968 0c-5.76 0-11.35104-2.048-15.73888-5.8368l-168.41728-144.3584C349.06112-16.62464 343.24992-18.687999999999988 337.36192-18.687999999999988zM179.7888 673.28c-12.86656 0-23.31648-10.1632-23.31648-22.67136l0-421.5552c0-12.48768 10.44992-22.656 23.31648-22.656l118.72256 0c39.61344 0 71.83872-31.36 71.83872-69.87264l0-49.29536 122.7008 102.33856c13.05088 10.8544 29.63968 16.82944 46.7456 16.82944l324.82816 0c12.84096 0 23.28576 10.1632 23.28576 22.656L887.9104 650.60864c0 12.50304-10.4448 22.67136-23.28576 22.67136L179.7888 673.28z"  horiz-adv-x="1024" />

    
    <glyph glyph-name="qian" unicode="&#58932;" d="M512 762.88c208.91648 0 378.88-169.96352 378.88-378.88s-169.96352-378.88-378.88-378.88-378.88 169.96352-378.88 378.88 169.96352 378.88 378.88 378.88m0 71.68c-248.83712 0-450.56-201.72288-450.56-450.56s201.72288-450.56 450.56-450.56 450.56 201.72288 450.56 450.56-201.72288 450.56-450.56 450.56zM624.74752 632.3712a35.72224 35.72224 0 0 1-25.344-10.496L512 534.47168 424.59648 621.8752a35.73248 35.73248 0 0 1-25.344 10.496 35.84 35.84 0 0 1-25.344-61.17888L451.07712 494.0288H348.16a35.84 35.84 0 1 1 0-71.68h128v-66.56H348.16a35.84 35.84 0 1 1 0-71.68h128v-133.12a35.84 35.84 0 1 1 71.68 0v133.12h128a35.84 35.84 0 1 1 0 71.68h-128v66.56h128a35.84 35.84 0 1 1 0 71.68h-102.91712l77.16352 77.16352a35.84 35.84 0 0 1-25.33888 61.17888z"  horiz-adv-x="1024" />

    
    <glyph glyph-name="finish" unicode="&#58885;" d="M870.4 563.2l-89.6 89.6L416 294.4 243.2 460.8l-89.6-89.6 262.4-256z"  horiz-adv-x="1024" />

    
    <glyph glyph-name="badge" unicode="&#58993;" d="M502.369 321.85400000000004c99.22 0 179.955 80.724 179.955 179.955s-80.735 179.938-179.955 179.938c-99.199 0-179.933-80.702-179.933-179.933s80.734-179.96 179.933-179.96z m0 308.493c70.872 0 128.528-57.645 128.528-128.538 0-70.883-57.662-128.556-128.528-128.556-70.888 0-128.539 57.673-128.539 128.56 0 70.889 57.651 128.534 128.539 128.534z m247.442-337.251c55.376 65.584 85.326 153.309 74.132 247.867C806.508 688.856 687.352 807.16 539.405 823.668c-195.152 21.725-360.97-131.061-360.97-321.86 0-80.626 29.706-154.43 78.643-211.16L155.416 105.71000000000004c-3.789-6.84 1.202-15.225 9.017-15.225h119.339a20.496 20.496 0 0 0 17.133-9.26l70.338-107.762c4.21-6.44 13.706-6.165 17.559 0.475L504.11 175.00199999999995 619.47-26.03099999999995c3.795-6.672 13.286-6.947 17.49-0.507l70.407 107.763a20.48 20.48 0 0 0 17.08 9.264h119.387c7.82 0 12.757 8.38 9.033 15.22L749.811 293.096z m-283.034 478.93c178.057 22.711 328.488-127.747 305.831-305.82-15.506-121.587-113.082-219.163-234.652-234.636C359.882 208.89999999999998 209.467 359.35400000000004 232.13 537.374c15.516 121.602 113.017 219.163 234.647 234.652z m-93.67-707.406l-44.365 68.01a20.437 20.437 0 0 1-17.128 9.264h-66.555a6.543 6.543 0 0 0-5.734 9.701l55.824 101.516a322.56 322.56 0 0 1 153.907-70.774l-67.368-117.459a5.028 5.028 0 0 0-8.57-0.258z m306.43 68.01l-44.425-68.016a4.97 4.97 0 0 0-8.505 0.27L558.888 182.95000000000005a322.749 322.749 0 0 1 153.115 72.219l58.207-105.865a4.996 4.996 0 0 0-4.404-7.41h-69.114a20.458 20.458 0 0 1-17.15-9.27z"  horiz-adv-x="1024" />

    
    <glyph glyph-name="addUser" unicode="&#59189;" d="M544 112c0 115.2 80 211.2 188.8 233.6-44.8 25.6-99.2 38.4-156.8 38.4h-128C214.4 384 64 156.79999999999995 64 0c0-44.8 35.2-80 80-80H640c-57.6 44.8-96 112-96 192zM512 624m-224 0a224 224 0 1 1 448 0 224 224 0 1 1-448 0ZM928 160h-128v128c0 19.2-12.8 32-32 32s-32-12.8-32-32v-128h-128c-19.2 0-32-12.8-32-32s12.8-32 32-32h128v-128c0-19.2 12.8-32 32-32s32 12.8 32 32v128h128c19.2 0 32 12.8 32 32s-12.8 32-32 32z"  horiz-adv-x="1024" />

    
    <glyph glyph-name="down-fill" unicode="&#59194;" d="M512 864C246.4 864 32 649.6 32 384s214.4-480 480-480 480 214.4 480 480S777.6 864 512 864z m272-371.2l-249.6-249.6c-12.8-12.8-32-12.8-44.8 0l-249.6 249.6c-12.8 12.8-12.8 32 0 44.8 12.8 12.8 32 12.8 44.8 0l227.2-227.2 227.2 227.2c12.8 12.8 32 12.8 44.8 0 12.8-12.8 12.8-32 0-44.8z"  horiz-adv-x="1024" />

    
    <glyph glyph-name="search" unicode="&#58913;" d="M980.8-70.39999999999998L760 150.39999999999998c73.6 75.2 120 179.2 120 294.4C880 675.2 691.2 864 459.2 864 228.8 864 40 675.2 40 443.2c0-232 188.8-420.8 420.8-420.8 104 0 198.4 38.4 272 100.8l222.4-222.4L980.8-70.39999999999998zM76.8 443.2c0 211.2 171.2 382.4 382.4 382.4 211.2 0 382.4-171.2 382.4-382.4 0-211.2-171.2-382.4-382.4-382.4C248 60.799999999999955 76.8 233.60000000000002 76.8 443.2z"  horiz-adv-x="1024" />

    
    <glyph glyph-name="omit" unicode="&#58938;" d="M199.96081543 274.16418457C139.31628418 274.16418457 90.125 323.35546875 90.125 384c0 60.64453125 49.19128418 109.83581543 109.83581543 109.83581543 60.64453125 0 109.83581543-49.19128418 109.83581543-109.83581543 0-60.64453125-49.19128418-109.83581543-109.83581544-109.83581543zM512 274.16418457c-60.64453125 0-109.83581543 49.19128418-109.83581543 109.83581543 0 60.64453125 49.19128418 109.83581543 109.83581543 109.83581543 60.64453125 0 109.83581543-49.19128418 109.83581543-109.83581543 0-60.64453125-49.19128418-109.83581543-109.83581543-109.83581543zM824.03918457 274.16418457c-60.64453125 0-109.83581543 49.19128418-109.83581543 109.83581543 0 60.64453125 49.19128418 109.83581543 109.83581544 109.83581543 60.64453125 0 109.83581543-49.19128418 109.83581542-109.83581543 0-60.64453125-49.19128418-109.83581543-109.83581543-109.83581543z"  horiz-adv-x="1024" />

    
    <glyph glyph-name="email" unicode="&#58943;" d="M828.89645557 693.32142714l-632.93305255 1e-8c-58.34534238 0-105.48734326-47.13300615-105.48734325-105.36232148l0-408.05402608c0-58.22751709 47.14200088-105.36501973 105.48734325-105.36501972l632.93305255 0c58.12767949 0 105.48824239 47.13750352 105.48824238 105.36501972L934.38469795 587.95910567C934.38559707 646.1884209899999 887.02413506 693.32142714 828.89645557 693.32142714zM878.12244248 179.90507959c0-27.07744131-22.08648516-49.10906162-49.22508779-49.10906162l-632.93305255 0c-27.1422 0-49.22508779 22.03072031-49.22508779 49.10906162L146.73921435 587.95910567c0 27.02707295 22.08378692 49.11175987 49.2250878 49.11175985l632.93305254 0c27.13950176 0 49.22508779-22.08468691 49.22508779-49.11175986L878.12244248 179.90507959zM794.33572872 503.35750518l-281.9049003-181.72151544-282.01642998 181.72151544c-13.07956026 8.35033887-30.43952315 4.61948994-38.89869346-8.40430547-8.35393711-13.07326377-4.62038906-30.48539414 8.45917031-38.89149874l297.23754023-191.50285341c4.61319346-3.01759893 9.94503428-4.44859717 15.21841202-4.44859717 5.27607598 0 10.60252031 1.43099825 15.21931201 4.44859717l297.12151318 191.50285341c13.07956026 8.40610459 16.8715705 25.81823408 8.4124002 38.89149874C824.77075449 508.0282626 807.24799355 511.70784404 794.33572872 503.35750518z"  horiz-adv-x="1025" />

    
    <glyph glyph-name="onfocus" unicode="&#59136;" d="M585.69216 6.05183999999997H190.976a46.31552 46.31552 0 0 0-36.78208 17.98144 47.72864 47.72864 0 0 0-8.64768 41.1136 381.54752 381.54752 0 0 0 370.82624 290.45248 376.89856 376.89856 0 0 0 175.48288-42.70592 33.72032 33.72032 0 0 1 30.94528 59.904 444.28288 444.28288 0 0 1-71.40864 29.45024 234.40896 234.40896 0 1 1-270.1312 0.06656 448.98816 448.98816 0 0 1-301.00992-320.896 115.01056 115.01056 0 0 1 20.93568-98.97472A113.152 113.152 0 0 1 190.976-61.440000000000055h394.69056a33.74592 33.74592 0 0 1 0.0256 67.49184zM349.27104 594.304a167.13216 167.13216 0 1 0 167.12704-167.64928 167.58272 167.58272 0 0 0-167.12704 167.64928z m577.82784-388.06528a33.5616 33.5616 0 0 1-47.56992 0l-152.27904-152.7552-84.736 84.992a33.6896 33.6896 0 0 1-47.56992-47.7184L700.73856-15.360000000000014c0.41984-0.42496 0.91648-0.7168 1.3568-1.11616 0.47104-0.512 0.82944-1.13664 1.34144-1.64864a33.55136 33.55136 0 0 1 47.56992 0l176.09216 176.64a33.792 33.792 0 0 1 0 47.72352z"  horiz-adv-x="1024" />

    
    <glyph glyph-name="book" unicode="&#58923;" d="M392.169 522.244L151.421 522.244c-7.911 0-14.279-6.389-14.279-14.28 0-7.851 6.368-14.24 14.279-14.24L392.17 493.724c7.851 0 14.24 6.388 14.24 14.24C406.409 515.854 400.021 522.244 392.169 522.244zM392.169 404.902L151.421 404.902c-7.911 0-14.279-6.408-14.279-14.278 0-7.892 6.368-14.261 14.279-14.261L392.17 376.36300000000006c7.851 0 14.24 6.368 14.24 14.261C406.409 398.495 400.021 404.902 392.169 404.902zM392.169 287.52099999999996L151.421 287.52099999999996c-7.911 0-14.279-6.406-14.279-14.276 0-7.873 6.368-14.261 14.279-14.261L392.17 258.98400000000004c7.851 0 14.24 6.388 14.24 14.261C406.409 281.115 400.021 287.52099999999996 392.169 287.52099999999996zM618.357 507.964c0-7.851 6.367-14.24 14.24-14.24l240.746 0c7.892 0 14.261 6.388 14.261 14.24 0 7.89-6.367 14.28-14.261 14.28L632.599 522.244C624.728 522.244 618.357 515.854 618.357 507.964zM873.347 404.902L632.599 404.902c-7.872 0-14.24-6.408-14.24-14.278 0-7.892 6.368-14.261 14.24-14.261l240.748 0c7.89 0 14.259 6.368 14.259 14.261C887.604 398.495 881.237 404.902 873.347 404.902zM873.347 287.52099999999996L632.599 287.52099999999996c-7.872 0-14.24-6.406-14.24-14.276 0-7.873 6.368-14.261 14.24-14.261l240.748 0c7.89 0 14.259 6.388 14.259 14.261C887.604 281.115 881.237 287.52099999999996 873.347 287.52099999999996zM751.301 763.654c-88.362 0-187.057-13.519-238.526-48.247-51.472 34.728-150.145 48.247-238.526 48.247-126.493 0-274.174-27.64-274.174-105.605l0-622.81c0-10.554 4.645-20.487 12.696-27.258 8.051-6.77 18.666-9.652 29.039-7.849 70.136 12.133 150.486 18.545 232.437 18.545 81.953 0 162.302-6.41 232.439-18.545 0.96-0.182 1.901-0.182 2.863-0.282 0.76-0.06 1.5-0.119 2.262-0.141 0.319-0.039 0.643-0.099 0.963-0.099 1.902 0 3.805 0.16 5.688 0.5 0.119 0.022 0.238 0 0.399 0.022 70.139 12.133 150.488 18.545 232.441 18.545 81.949 0 162.32-6.41 232.437-18.545 2.025-0.361 4.084-0.521 6.087-0.521 8.331 0 16.463 2.903 22.949 8.37 8.054 6.771 12.699 16.702 12.699 27.258L1025.474 658.049C1025.474 736.016 877.791 763.654 751.301 763.654zM71.371 76.79700000000003L71.371 653.543c14.418 14.121 85.636 38.813 202.876 38.813 117.221 0 188.458-24.693 202.876-38.813l0-576.747c-63.406 8.67-132.659 13.198-202.876 13.198C204.032 89.995 134.758 85.46699999999998 71.371 76.79700000000003zM954.177 76.79700000000003c-126.792 17.304-279.001 17.304-405.755 0L548.422 653.543c14.419 14.121 85.639 38.813 202.879 38.813 117.239 0 188.455-24.693 202.875-38.813L954.177 76.79700000000003 954.177 76.79700000000003z"  horiz-adv-x="1026" />

    
    <glyph glyph-name="bell" unicode="&#58915;" d="M512 640c117.632 0 213.333333-95.701333 213.333333-213.333333v-149.333334c0-13.845333 4.501333-27.328 12.8-38.4L789.333333 170.66666699999996H234.666667l51.2 68.266666c8.298667 11.072 12.8 24.554667 12.8 38.4v149.333334c0 117.632 95.701333 213.333333 213.333333 213.333333m0 64c-153.173333 0-277.333333-124.16-277.333333-277.333333v-149.333334l-64-85.333333v-42.666667c0-23.466667 19.2-42.666667 42.666666-42.666666h597.333334c23.466667 0 42.666667 19.2 42.666666 42.666666v42.666667l-64 85.333333v149.333334c0 153.173333-124.16 277.333333-277.333333 277.333333zM512 42.66666699999996a64 64 0 0 0-64 64h-64c0-70.570667 57.429333-128 128-128s128 57.429333 128 128h-64a64 64 0 0 0-64-64zM512 640a42.666667 42.666667 0 1 0-0.021333 85.312A42.666667 42.666667 0 0 0 512 640h97.621333A105.962667 105.962667 0 0 1 618.666667 682.666667c0 58.816-47.850667 106.666667-106.666667 106.666666s-106.666667-47.850667-106.666667-106.666666c0-15.189333 3.306667-29.568 9.045334-42.666667H512z"  horiz-adv-x="1024" />

    
    <glyph glyph-name="eye" unicode="&#58985;" d="M1023.997 384.169c0-99.79-211.129-312.67-511.999-312.67C218.787 71.49900000000002 0 280.875 0 384.169c0 103.279 219.73 312.334 511.999 312.334 303.234-0.001 512.071-209.057 511.999-312.335L1023.998 384.169zM512.45 639.471C376.184 639.471 265.72 525.087 265.72 384c0-141.089 110.463-255.471 246.729-255.471 136.307 0 246.774 114.383 246.774 255.471C759.223 525.087 648.756 639.471 512.45 639.471L512.45 639.471zM511.999 547.0989999999999c-86.778 0-157.126-72.827-157.126-162.673 0-89.836 70.348-162.677 157.126-162.677s157.097 72.841 157.097 162.677C669.096 474.273 598.776 547.0989999999999 511.999 547.0989999999999L511.999 547.0989999999999z"  horiz-adv-x="1024" />

    
    <glyph glyph-name="down" unicode="&#59148;" d="M512 300.141714l206.482286 206.518857a18.285714 18.285714 0 0 0 25.892571-25.892571l-219.428571-219.428571a18.285714 18.285714 0 0 0-25.892572 0l-219.428571 219.428571a18.285714 18.285714 0 0 0 25.892571 25.892571L512 300.141714z"  horiz-adv-x="1024" />

    
    <glyph glyph-name="edit" unicode="&#58950;" d="M934.724189 617.173271L834.414864 516.8639459999999 653.380212 697.898598l100.394659 100.351991A42.257063 42.257063 0 0 0 783.769535 810.666588c6.527999 0 19.157332-1.621333 29.951997-12.415999l121.002657-121.002656a42.538663 42.538663 0 0 0 0-60.074662zM299.374908-18.176009000000022l-200.661316-19.626665 19.669331 200.661316L593.049551 637.52527 774.084202 456.533285l-474.709294-474.709294z m695.679942 755.79727L874.09486 858.581251A127.317323 127.317323 0 0 1 783.769535 895.999915c-32.725331 0-65.407995-12.458666-90.367993-37.418664l-646.229279-646.229279c-7.082666-7.082666-11.434666-16.469332-12.287999-26.495998l-26.197331-267.818645c-2.133333-25.002665 17.706665-46.037329 42.239996-46.037329 1.194667 0 2.432 0.042667 3.626666 0.128l267.818645 26.239998a42.12053 42.12053 0 0 1 26.495998 12.287999l646.186612 646.186613c49.919996 49.919996 49.919996 130.858656 0 180.778651z"  horiz-adv-x="1032" />

    
    <glyph glyph-name="wenhao1" unicode="&#59007;" d="M510.827 819.958c247.096-0.028 448.767-201.816 448.28-448.542-0.49-247.641-201.839-448.844-448.57-448.241-247.462 0.604-447.696 200.956-448.024 448.289-0.328 246.882 201.23 448.521 448.315 448.494zM916.775 371.635c-0.036 223.591-181.117 405.318-405.726 405.779-223.891 0.458-405.925-181.253-406.159-405.791-0.233-223.613 181.449-405.166 405.673-405.804 223.336-0.636 406.247 182.097 406.212 405.817zM535.795 226.7c-19.143 0-37.775 0-56.939 0 0 11.373-0.608 22.537 0.128 33.613 1.485 22.364 6.658 43.815 18.344 63.301 9.094 15.164 20.675 28.25 33.541 40.276 15.979 14.935 32.148 29.678 47.81 44.94 9.222 8.986 17.419 19.009 21.68 31.483 10.207 29.884 3.682 56.569-16.199 80.337-33.016 39.47-88.236 40.822-122.051 21.067-21.313-12.451-34.092-31.502-41.552-54.414-3.344-10.272-5.654-20.881-8.651-32.155-19.652 2.333-39.767 4.722-60.636 7.199 0.779 5.206 1.336 10.1 2.263 14.924 5.196 27.06 14.589 52.297 32.254 73.943 21.519 26.37 49.555 41.723 82.58 48.062 34.471 6.616 68.92 5.901 102.442-4.987 42.921-13.939 74.68-41.177 89.113-84.564 13.857-41.655 7.049-81.004-20.227-116.155-17.302-22.299-38.82-40.415-59.042-59.832-8.896-8.542-17.896-17.136-25.623-26.696-11.477-14.198-15.858-31.37-17.242-49.325-0.782-10.137-1.313-20.294-1.992-31.014zM475.158 106.26c0 22.494 0 44.772 0 67.411 22.538 0 44.811 0 67.458 0 0-22.426 0-44.709 0-67.411-22.407 0-44.809 0-67.458 0z"  horiz-adv-x="1024" />

    
    <glyph glyph-name="checked" unicode="&#58899;" d="M593.92 680.96c112.64 0 204.8-92.16 204.8-204.8v-204.8c0-112.64-92.16-204.8-204.8-204.8h-204.8c-112.64 0-204.8 92.16-204.8 204.8v204.8c0 112.64 92.16 204.8 204.8 204.8h204.8m0 51.2h-204.8c-143.36 0-256-112.64-256-256v-204.8c0-143.36 112.64-256 256-256h204.8c143.36 0 256 112.64 256 256v204.8c0 138.24-112.64 256-256 256zM527.36 133.12L230.4 435.2 307.2 496.64l174.08-133.12c71.68 81.92 230.4 250.88 445.44 384l20.48-40.96c-199.68-184.32-363.52-445.44-419.84-573.44m0 0"  horiz-adv-x="1024" />

    
    <glyph glyph-name="check" unicode="&#58925;" d="M593.92 680.96c112.64 0 204.8-92.16 204.8-204.8v-204.8c0-112.64-92.16-204.8-204.8-204.8h-204.8c-112.64 0-204.8 92.16-204.8 204.8v204.8c0 112.64 92.16 204.8 204.8 204.8h204.8m0 51.2h-204.8c-143.36 0-256-112.64-256-256v-204.8c0-143.36 112.64-256 256-256h204.8c143.36 0 256 112.64 256 256v204.8c0 138.24-112.64 256-256 256z"  horiz-adv-x="1024" />

    
    <glyph glyph-name="logout" unicode="&#58914;" d="M1024 448c0-19.2-6.4-32-19.2-44.8l0 0-128-128 0 0C864 262.4 851.2 256 832 256c-38.4 0-64 25.6-64 64 0 19.2 6.4 32 19.2 44.8l0 0L806.4 384 640 384C601.6 384 576 409.6 576 448c0 38.4 25.6 64 64 64l166.4 0-19.2 19.2 0 0C774.4 544 768 556.8 768 576c0 38.4 25.6 64 64 64 19.2 0 32-6.4 44.8-19.2l0 0 128-128 0 0C1017.6 480 1024 467.2 1024 448zM832 768l-128 0L576 768 294.4 768l121.6-70.4 0 0C435.2 684.8 448 665.6 448 640l0-512 64 0 192 0 128 0c38.4 0 64-25.6 64-64s-25.6-64-64-64L512 0 448 0l0-64c0-38.4-25.6-64-64-64-12.8 0-25.6 6.4-32 12.8l0 0-320 192 0 0 0 0c-6.4 6.4-12.8 12.8-19.2 19.2 0 0 0 0 0 6.4C6.4 108.79999999999995 0 115.20000000000005 0 128L0 832c0 25.6 19.2 51.2 38.4 57.6C44.8 896 57.6 896 64 896l0 0 512 0 256 0c38.4 0 64-25.6 64-64C896 793.6 870.4 768 832 768z"  horiz-adv-x="1024" />

    
    <glyph glyph-name="wallet" unicode="&#58994;" d="M941.78670592 666.2093437155555c0 72.49414371555555-62.13783665777777 134.63198037333333-134.63198037333333 134.63197923555558H232.37973333333332c-72.49414371555555 0-134.63198037333333-62.13783665777777-134.63198037333333-134.63197923555558v-572.1859163022222c0-72.49414371555555 62.13783665777777-134.63198037333333 134.63198037333333-134.63198037333333h572.1859163022222c72.49414371555555 0 134.63198037333333 62.13783665777777 134.63198037333333 134.63198037333333v142.39920924444445H636.2756744533333c0 2.5890770488888886-116.50844444444445-7.767230008888888-116.50844444444445 137.22105742222223 0 155.34459221333333 126.86475036444445 144.98828629333332 126.86475036444445 144.98828629333332h295.15472554666667v147.57736334222224zM574.1378366577777 376.232769991111c0-100.97398556444443 90.61767850666665-90.61767850666665 90.61767964444445-90.61767850666665h266.6748836977778v194.18074111999996h-258.90765482666666c0-2.5890770488888886-98.38490851555554 5.17815296-98.38490851555554-103.56306261333333z m100.97398556444443 44.01430186666666c18.123535928888888 0 33.657994808888894-15.534458879999999 33.657994808888894-33.657994808888894 0-12.945382968888888-7.767230008888888-23.301688888888886-18.123535928888888-31.068918897777777-10.35630592-5.17815296-23.301688888888886-5.17815296-33.657994808888894 0s-18.123535928888888 18.123535928888888-18.123535928888888 31.068918897777777c2.5890770488888886 18.123535928888888 18.123535928888888 33.657994808888894 36.247071857777776 33.657994808888894z"  horiz-adv-x="1024" />

    
    <glyph glyph-name="collect" unicode="&#58896;" d="M832.8 832.1H191.2c-17.8 0-32.3-14.5-32.3-32.3V18c0-23.3 23.9-38.9 45.3-29.6L489.8 114l331.4-128.4c21.2-8.2 44 7.4 44 30.1V799.8c-0.1 17.9-14.5 32.3-32.4 32.3z"  horiz-adv-x="1024" />

    
    <glyph glyph-name="set" unicode="&#58898;" d="M881 384c0 52.4 32.9 96.8 79 114.5-11 43.2-28 83.9-50.2 121.3C864.6 599.7 810 607.9 773 645c-37 37-45.2 91.7-25.1 136.8C710.4 804 669.7 821 626.5 832c-17.8-46.1-62.2-79-114.5-79-52.4 0-96.8 32.9-114.5 79-43.2-11-83.9-28-121.3-50.2 20.1-45.2 11.9-99.8-25.1-136.8-37-37-91.7-45.2-136.8-25.2C92 582.4 75 541.7 64 498.5c46.1-17.8 79-62.2 79-114.5 0-52.4-32.9-96.8-79-114.5 11-43.2 28-83.9 50.2-121.3C159.4 168.29999999999995 214 160.10000000000002 251 123c37-37 45.2-91.7 25.1-136.8C313.6-36 354.3-53 397.5-64c17.8 46.1 62.2 79 114.5 79 52.4 0 96.8-32.9 114.5-79 43.2 11 83.9 28 121.3 50.2-20.1 45.2-11.9 99.8 25.1 136.8 37 37 91.7 45.2 136.8 25.2C932 185.60000000000002 949 226.29999999999995 960 269.5c-46.1 17.7-79 62.1-79 114.5zM512 261c-67.9 0-123 55.1-123 123s55.1 123 123 123 123-55.1 123-123-55.1-123-123-123z"  horiz-adv-x="1024" />

    
    <glyph glyph-name="like" unicode="&#58968;" d="M695.30624 752.55808c-41.85088-7.28576-76.5184-20.25472-105.76384-40.01792l-30.00832-24.2944-47.16544-47.16544C445.07648 692.72064 416.09728 756.0192 290.83648 753.99168l-52.87936-8.576c-45.00992-13.68064-88.192-39.87456-114.33984-72.89344-15.35488-19.38944-30.36672-42.7008-40.01792-67.1744-56.9856-144.5376 41.74848-234.69056 108.6208-301.568l117.1968-115.7632 144.35328-142.9248c17.43872-14.08512 30.55616-38.17984 68.60288-31.44704 45.5424 8.064 93.2608 74.69056 122.91072 104.33536a2629899.9808 2629899.9808 0 0 0 170.07616 168.64768c52.47488 52.46976 111.60064 96.25088 134.3488 178.65216 43.14112 156.30336-101.55008 313.90208-254.40256 287.27808z m184.36608-314.42432c-22.13888-37.94432-57.02656-65.60256-87.17312-95.75936-56.68864-56.2176-113.38752-112.44032-170.08128-168.64768-15.55968-15.55456-95.83104-104.43776-110.04928-102.90688-14.14656-1.25952-33.00352 27.35616-42.88 37.16096l-114.33472 112.91136c-46.68928 46.19776-93.38368 92.42624-140.0576 138.63424-27.06944 27.06432-59.50976 52.54144-75.76064 90.0352-28.83072 66.52928-7.79264 149.32992 30.01856 190.09024 21.36576 23.04 51.52256 43.21792 85.75488 52.87936 12.38016 1.90464 24.76544 3.8144 37.15584 5.71392 71.44448-0.31232 87.64928-26.24512 131.48672-47.16032l88.61184-88.61184c45.78816 35.10784 76.7488 89.99424 130.05824 117.1968 116.6592 59.52 231.63392-24.5248 254.40256-121.48736 9.91232-42.18368-1.33632-92.96384-17.152-120.04864z"  horiz-adv-x="1024" />

    
    <glyph glyph-name="news" unicode="&#59584;" d="M512-64c49.6 0 88 38.4 88 88H424c0-49.6 38.4-88 88-88z m288.8 286.4V451.2c0 137.6-97.6 252.8-224.8 283.2v28.8c0 32-17.6 60.8-48 67.2-44 10.4-80-23.2-80-66.4v-30.4C320.8 704 223.2 588.8 223.2 451.2v-228.8L136 132.79999999999995v-44.8h752v44.8l-87.2 89.6z"  horiz-adv-x="1024" />

    
    <glyph glyph-name="hot" unicode="&#58886;" d="M775.093 637.6469999999999c-116.478-35.083-137.803-134.53-130.29-197.693-83.093 103.15-79.681 221.81-79.681 392.763-266.493-106.12-204.517-412.087-212.487-505-67.03 57.94-79.696 196.38-79.696 196.38-70.76-38.453-106.242-141.147-106.242-224.447 0-201.437 154.599-364.724 345.303-364.724S857.303 98.21299999999997 857.303 299.65c0 119.71-83.218 174.931-82.21 337.997z"  horiz-adv-x="1024" />

    
    <glyph glyph-name="comment" unicode="&#58922;" d="M866.8 651.6h-40.9 16.2c13.8-0.8 24.7-12.2 24.7-26.2v26.2zM520.9 155.60000000000002c16-16 16-41.9 0-57.9L409.1-14.100000000000023c-16-16-41.9-16-57.9 0s-16 41.9 0 57.9L463 155.60000000000002c16 16 41.9 16 57.9 0zM887 733H314.5c-22.6 0-41-18.3-41-41 0-22.6 18.3-41 41-41h552.3v-367.2c0-22.6 18.3-41 41-41s41 18.3 41 41V668.1c-1.6 34.2-28.1 61.8-61.8 64.9zM760.4 617.6H146.9c-38.5 0-70.1-31.5-70.1-70.1v-391.8c0-38.5 31.5-70.1 70.1-70.1h613.5c38.5 0 70.1 31.5 70.1 70.1V547.5c-0.1 38.6-31.6 70.1-70.1 70.1z m-405.8-266c0-22.6-18.3-41-41-41h-38.1c-22.6 0-41 18.3-41 41 0 22.6 18.3 41 41 41h38.1c22.6 0 41-18.3 41-41z m158.3 0c0-22.6-18.3-41-41-41h-38.1c-22.6 0-41 18.3-41 41 0 22.6 18.3 41 41 41h38.1c22.6 0 41-18.3 41-41z m158.3 0c0-22.6-18.3-41-41-41h-38.1c-22.6 0-41 18.3-41 41 0 22.6 18.3 41 41 41h38.1c22.6 0 41-18.3 41-41z"  horiz-adv-x="1024" />

    
    <glyph glyph-name="close" unicode="&#58884;" d="M622.276923 387.938462l257.969231 257.96923c11.815385 11.815385 11.815385 29.538462 0 41.353846l-41.353846 41.353847c-11.815385 11.815385-29.538462 11.815385-41.353846 0L539.569231 470.646154c-7.876923-7.876923-19.692308-7.876923-27.569231 0L254.030769 730.584615c-11.815385 11.815385-29.538462 11.815385-41.353846 0l-41.353846-41.353846c-11.815385-11.815385-11.815385-29.538462 0-41.353846l257.969231-257.969231c7.876923-7.876923 7.876923-19.692308 0-27.56923L169.353846 102.4c-11.815385-11.815385-11.815385-29.538462 0-41.353846l41.353846-41.353846c11.815385-11.815385 29.538462-11.815385 41.353846 0L512 277.661538c7.876923 7.876923 19.692308 7.876923 27.569231 0l257.969231-257.96923c11.815385-11.815385 29.538462-11.815385 41.353846 0l41.353846 41.353846c11.815385 11.815385 11.815385 29.538462 0 41.353846L622.276923 360.369231c-5.907692 7.876923-5.907692 19.692308 0 27.569231z"  horiz-adv-x="1024" />

    
    <glyph glyph-name="other" unicode="&#58895;" d="M336.248791 853.851823H195.621064c-77.739971 0-152.402457-51.246831-152.402457-128.986803V584.237293c0-77.739971 74.662485-152.402457 152.402457-152.402457h140.627727c142.233373 0 128.986803 4.415523 128.986803 152.402457V724.86502c0 77.739971-51.246831 128.986803-128.986803 128.986803m0-515.94721H195.621064c-77.739971 0-152.402457-51.246831-152.402457-128.986803v-140.627728c0-77.739971 74.662485-152.402457 152.402457-152.402456h140.627727c77.739971 0 128.986803 74.662485 128.986803 152.402456V209.05161399999997c0 136.212204 7.359206 128.852999-128.986803 128.852999M852.062198 853.851823H711.43447c-77.739971 0-152.402457-51.246831-152.402456-128.986803V584.237293c0-142.233373 10.169084-152.402457 152.402456-152.402457h140.627728c77.739971 0 128.986803 74.662485 128.986802 152.402457V724.86502c0 77.739971-51.246831 128.986803-128.986802 128.986803m0-515.94721H711.43447c-142.233373 0-152.402457 13.24657-152.402456-128.986803v-140.627728c0-77.739971 74.662485-152.402457 152.402456-152.402456h140.627728c77.739971 0 128.986803 74.662485 128.986802 152.402456V209.05161399999997c0 77.606168-51.246831 128.852999-128.986802 128.852999m82.155494-253.959493"  horiz-adv-x="1024" />

    
    <glyph glyph-name="article" unicode="&#58889;" d="M761.899048 790.099065L262.099928 790.099065c-68.899206 0-124.94978-55.098899-124.94978-122.781394L137.150148 100.68335300000001c0-67.684542 56.050574-122.782418 124.94978-122.782418l499.79912 0c68.899206 0 124.94978 55.098899 124.94978 122.782418L886.848828 667.317671C886.847805 735.0011890000001 830.798255 790.099065 761.899048 790.099065zM308.156894 598.815507l215.47554 0c15.916505 0 28.818349-12.691043 28.818349-28.342512 0-15.624862-12.901845-28.315906-28.818349-28.315906L308.156894 542.157089c-15.916505 0-28.818349 12.691043-28.818349 28.315906C279.338544 586.124464 292.240389 598.815507 308.156894 598.815507zM715.842083 169.15891l-407.685189 0c-15.916505 0-28.818349 12.691043-28.818349 28.342512s12.901845 28.340465 28.818349 28.340465l407.685189 0c15.916505 0 28.871561-12.688997 28.871561-28.340465S731.758588 169.15891 715.842083 169.15891zM715.842083 355.658512l-407.685189 0c-15.916505 0-28.818349 12.663414-28.818349 28.314883 0 15.678074 12.901845 28.369118 28.818349 28.369118l407.685189 0c15.916505 0 28.871561-12.69002 28.871561-28.369118C744.713644 368.32192599999996 731.758588 355.658512 715.842083 355.658512z"  horiz-adv-x="1024" />

    
    <glyph glyph-name="copy" unicode="&#58924;" d="M930.36 739v-504.16a62.9 62.9 0 0 0-62.83-63h-83.17V545.81c0 60.7-49.28 110.07-109.85 110.07H300.36V739a62.88 62.88 0 0 0 62.93 62.83h504.15A62.92 62.92 0 0 0 930.36 739zM674.36 595.88h-530a50 50 0 0 1-50-50v-530a50 50 0 0 1 50-50h530a50 50 0 0 1 50 50v530a50 50 0 0 1-50 50z m-132.48-435H276.52c-15.81 0-29.37 12-30.51 27.76a30 30 0 0 0 29.92 32.24h265.35c15.81 0 29.37-12 30.51-27.76a30 30 0 0 0-29.92-32.24z m0 180H276.52c-15.81 0-29.37 12-30.51 27.76a30 30 0 0 0 29.92 32.24h265.35c15.81 0 29.37-12 30.51-27.76a30 30 0 0 0-29.92-32.24z"  horiz-adv-x="1024" />

    
    <glyph glyph-name="other2" unicode="&#58906;" d="M352 448l-256 0C43.072 448 0 491.072 0 544l0 256C0 852.928 43.072 896 96 896l256 0C404.928 896 448 852.928 448 800l0-256C448 491.072 404.928 448 352 448zM96 832C78.336 832 64 817.664 64 800l0-256C64 526.336 78.336 512 96 512l256 0C369.664 512 384 526.336 384 544l0 256C384 817.664 369.664 832 352 832L96 832zM352-64l-256 0C43.072-64 0-20.927999999999997 0 32l0 256C0 340.928 43.072 384 96 384l256 0C404.928 384 448 340.928 448 288l0-256C448-20.927999999999997 404.928-64 352-64zM96 320C78.336 320 64 305.6 64 288l0-256C64 14.399999999999977 78.336 0 96 0l256 0C369.664 0 384 14.399999999999977 384 32l0 256C384 305.6 369.664 320 352 320L96 320zM864-64l-256 0C555.072-64 512-20.927999999999997 512 32l0 256C512 340.928 555.072 384 608 384l256 0C916.928 384 960 340.928 960 288l0-256C960-20.927999999999997 916.928-64 864-64zM608 320C590.4 320 576 305.6 576 288l0-256C576 14.399999999999977 590.4 0 608 0l256 0c17.6 0 32 14.4 32 32l0 256C896 305.6 881.6 320 864 320L608 320zM864 448l-256 0C555.072 448 512 491.072 512 544l0 256C512 852.928 555.072 896 608 896l256 0C916.928 896 960 852.928 960 800l0-256C960 491.072 916.928 448 864 448zM608 832C590.4 832 576 817.664 576 800l0-256C576 526.336 590.4 512 608 512l256 0C881.6 512 896 526.336 896 544l0 256C896 817.664 881.6 832 864 832L608 832z"  horiz-adv-x="1024" />

    
    <glyph glyph-name="history" unicode="&#59070;" d="M512 829C266.2 829 67 629.8 67 384s199.2-445 445-445 445 199.2 445 445S757.8 829 512 829z m279.3-724.3c-36.3-36.3-78.5-64.8-125.6-84.7-48.7-20.6-100.4-31-153.7-31s-105.1 10.4-153.7 31c-47 19.9-89.3 48.4-125.6 84.7-36.3 36.3-64.8 78.5-84.7 125.6-20.6 48.7-31 100.4-31 153.7s10.4 105.1 31 153.7c19.9 47 48.4 89.3 84.7 125.6 36.3 36.3 78.5 64.8 125.6 84.7 48.7 20.6 100.4 31 153.7 31s105.1-10.4 153.7-31c47-19.9 89.3-48.4 125.6-84.7 36.3-36.3 64.8-78.5 84.7-125.6 20.6-48.7 31-100.4 31-153.7s-10.4-105.1-31-153.7c-19.9-47.1-48.4-89.3-84.7-125.6zM517.5 348l251-79.8-15.2-47.6-285.9 90.9V712h50v-364z"  horiz-adv-x="1024" />

    
    <glyph glyph-name="girl" unicode="&#58948;" d="M855.729627 737.533959c-59.396769 58.262443-137.925351 90.355916-221.106837 90.355916-85.486263 0-165.539321-33.6035-225.39849-94.618669-59.049968-60.191519-91.143442-139.803852-90.334241-224.134114 0.6358-67.127524 22.115741-130.808721 61.188569-183.804135l-73.601129-74.995555-153.177337 150.287335a50.575037 50.575037 0 1 1-70.833952-72.199478l153.177338-150.287335-104.242377-106.250928a50.582262 50.582262 0 0 1 72.206703-70.841176l104.242376 106.243702 153.177338-150.287335a50.387187 50.387187 0 0 1 35.416976-14.471685 50.575037 50.575037 0 0 1 35.416976 86.678388l-153.177338 150.28011 73.514429 74.94498c53.002639-37.642278 116.192535-58.024017 182.388034-58.024017 85.486263 0 165.539321 33.596275 225.39849 94.618669 59.057193 60.198744 91.143442 139.803852 90.341466 224.134114-0.794751 84.337487-34.39825 163.306795-94.596994 222.371213z m-67.94395-375.66415c-40.684005-41.47153-95.08107-64.302547-153.191787-64.302547-56.542891 0-109.914006 21.805066-150.272885 61.41977-40.92243 40.134904-63.753447 93.802244-64.288097 151.125435-0.5491 57.323192 21.248741 111.416807 61.398095 152.332012 40.684005 41.47153 95.08107 64.302547 153.191787 64.302547 56.528441 0 109.899555-21.812291 150.272885-61.41977 40.90798-40.134904 63.738997-93.809469 64.288097-151.125436 0.5491-57.323192-21.248741-111.416807-61.398095-152.332011z"  horiz-adv-x="1024" />

    
    <glyph glyph-name="boy" unicode="&#58947;" d="M922.344176 743.790814v0.050575c0 0.765851-0.0867 1.517251-0.130051 2.283101-0.036125 0.67915-0.04335 1.365526-0.108375 2.037452-0.0867 0.794751-0.2312 1.553376-0.36125 2.333676-0.07225 0.455175-0.122825 0.917576-0.209525 1.379976l-0.04335 0.296226-0.050575 0.281775c-0.15895 0.794751-0.397375 1.553376-0.599676 2.333677-0.15895 0.6069-0.289 1.228251-0.469625 1.820701-0.2601 0.816426-0.585225 1.618401-0.888676 2.420377l-0.27455 0.758625-0.166175 0.455176-0.13005 0.325125c-0.354025 0.830876-0.758626 1.625626-1.163226 2.427602-0.223975 0.455175-0.41905 0.917576-0.6647 1.358301-0.4335 0.801976-0.924801 1.553376-1.401651 2.319226-0.1445 0.223975-0.267325 0.4624-0.411826 0.671926-0.0867 0.13005-0.151725 0.267325-0.238425 0.397375l-0.1156 0.1734c-0.50575 0.751401-1.062076 1.445001-1.611176 2.153052-0.30345 0.39015-0.578 0.801976-0.888676 1.184901-0.556325 0.6647-1.163226 1.293276-1.755676 1.929076-0.354025 0.382925-0.67915 0.780301-1.040401 1.141551l-0.065025 0.065025-0.01445 0.021675-0.07225 0.0578c-0.527425 0.527425-1.098201 1.004276-1.668976 1.510026-0.426275 0.3757-0.823651 0.780301-1.271601 1.148776-0.599675 0.4913-1.249926 0.932026-1.878501 1.401651-0.484075 0.36125-0.953701 0.744176-1.452226 1.083751a5.086404 5.086404 0 0 0-0.332351 0.2023l-0.53465 0.310675a26.70362 26.70362 0 0 1-1.141551 0.693601c-0.5202 0.3179-1.025951 0.657475-1.567826 0.9537-0.67915 0.368475-1.394426 0.671925-2.095252 1.004276-0.56355 0.267325-1.112651 0.570775-1.690651 0.809201-0.151725 0.07225-0.325125 0.122825-0.4913 0.180625-0.18785 0.079475-0.39015 0.137275-0.578001 0.223975l-1.018725 0.368475c-0.628575 0.223975-1.242701 0.484075-1.892952 0.693601-0.643025 0.18785-1.307726 0.325125-1.965201 0.4913-0.729726 0.195075-1.445001 0.41905-2.189177 0.563551-0.151725 0.036125-0.310675 0.036125-0.4624 0.065025l-0.426275 0.07225c-0.527425 0.10115-1.069301 0.166175-1.618402 0.238425-0.599675 0.093925-1.184901 0.21675-1.784576 0.281775a42.772031 42.772031 0 0 1-4.428928 0.223975h-0.151725l-343.079377-1.235476a43.350032 43.350032 0 0 1 0.151726-86.700063h0.151725l238.417949 0.867-156.76094-157.895265c-53.710689 42.179581-121.170564 67.467099-194.150342 67.467099l-4.219403-0.021675c-174.093728-2.290327-313.85423-145.786157-311.563903-319.858209 2.261427-171.817851 143.849855-311.592803 315.631581-311.592803l4.219403 0.0289c84.330262 1.105426 163.18397 34.983476 222.031638 95.39897 58.854893 60.415494 90.644916 140.136203 89.532265 224.452014-0.881451 67.82835-23.553517 130.613646-61.159669 181.831708l157.61349 158.747816V400.581387a43.350032 43.350032 0 0 1 86.700064 0V743.653538v0.050575 0.086701zM577.198448 144.02144899999996c-39.990404-41.06693-93.585494-64.085797-150.901461-64.844422l-2.890002-0.01445c-116.73441 0-212.957031 95.001595-214.495957 211.77213C207.357652 409.251393 302.352021 506.76729 420.668708 508.327891l2.890002 0.007225c116.741636 0 212.971481-94.99437 214.488732-211.779355 0.758626-57.301517-20.851365-111.474607-60.848994-152.534312z"  horiz-adv-x="1024" />

    
    <glyph glyph-name="why" unicode="&#58900;" d="M512 814.592a422.4 422.4 0 1 1 422.4-422.4A422.4 422.4 0 0 1 512 814.592z m26.624-629.76a45.056 45.056 0 0 0-31.232-12.288 42.496 42.496 0 0 0-31.232 12.8 41.984 41.984 0 0 0-12.8 30.72 39.424 39.424 0 0 0 12.8 30.72 42.496 42.496 0 0 0 31.232 12.288 43.008 43.008 0 0 0 31.744-12.288 39.424 39.424 0 0 0 12.8-30.72 43.008 43.008 0 0 0-13.312-31.744z m87.04 235.52a617.472 617.472 0 0 0-51.2-47.104 93.184 93.184 0 0 1-25.088-31.232 80.896 80.896 0 0 1-9.728-39.936v-10.24h-64v10.24a119.808 119.808 0 0 0 12.288 57.344A311.296 311.296 0 0 0 555.52 435.2l10.24 11.264a71.168 71.168 0 0 1 16.896 44.032A69.632 69.632 0 0 1 563.2 537.6a69.632 69.632 0 0 1-51.2 17.92 67.072 67.072 0 0 1-58.88-26.112 102.4 102.4 0 0 1-16.384-61.44h-61.44a140.288 140.288 0 0 0 37.888 102.4 140.8 140.8 0 0 0 104.96 38.4 135.68 135.68 0 0 0 96.256-29.184 108.032 108.032 0 0 0 36.352-86.528 116.736 116.736 0 0 0-25.088-73.216z"  horiz-adv-x="1024" />

    
    <glyph glyph-name="mobile" unicode="&#58917;" d="M727.54062222 809.25582222c19.22389333 0 34.95253333-15.72864 34.95253333-34.95253333v-780.60657778c0-19.22389333-15.72864-34.95253333-34.95253333-34.95253333H296.45937778c-19.22389333 0-34.95253333 15.72864-34.95253333 34.95253333V774.30328889c0 19.22389333 15.72864 34.95253333 34.95253333 34.95253333h431.08124444m0 69.90506667H296.45937778c-57.67168 0-104.8576-47.18592-104.8576-104.8576v-780.60657778c0-57.67168 47.18592-104.8576 104.8576-104.8576h431.08124444c57.67168 0 104.8576 47.18592 104.8576 104.8576V774.30328889c0 57.67168-47.18592 104.8576-104.8576 104.8576zM765.40586667 106.12735999999995H258.59413333c-36.70016 0-66.99235555-29.70965333-66.99235555-66.99235555v-50.68117334c0-36.70016 29.70965333-66.99235555 66.99235555-66.99235556h506.81173334c36.70016 0 66.99235555 29.70965333 66.99235555 66.99235556v50.68117334c0 37.28270222-30.29219555 66.99235555-66.99235555 66.99235555z m-254.57095112-136.89742222c-29.12711111 0-53.01134222 23.88423111-53.01134222 53.01134222s23.88423111 53.01134222 53.01134222 53.01134222 53.01134222-23.88423111 53.01134223-53.01134222-23.88423111-53.01134222-53.01134223-53.01134222z"  horiz-adv-x="1024" />

    
    <glyph glyph-name="note" unicode="&#59153;" d="M815.261538 114.215385l-17.723076-17.723077c-19.692308-19.692308-45.292308-29.538462-72.861539-29.538462h-51.2c-47.261538 0-98.461538 37.415385-98.461538 102.4v49.230769c0 39.384615 17.723077 63.015385 27.56923 76.8l212.676923 216.615385c5.907692 5.907692 11.815385 19.692308 11.815385 27.569231V703.015385C827.076923 754.215385 783.753846 797.538462 732.553846 797.538462H228.430769C177.230769 797.538462 133.907692 750.276923 133.907692 703.015385H102.4C66.953846 703.015385 39.384615 673.476923 39.384615 638.030769s27.569231-63.015385 63.015385-63.015384h31.507692v-128H102.4C66.953846 447.015385 39.384615 419.446154 39.384615 384s27.569231-63.015385 63.015385-63.015385h31.507692v-128H102.4c-35.446154 0-63.015385-29.538462-63.015385-63.015384 0-35.446154 27.569231-63.015385 63.015385-63.015385h31.507692c0-63.015385 43.323077-94.523077 94.523077-94.523077h504.123077c51.2 0 94.523077 43.323077 94.523077 94.523077V108.307692c0 9.846154-3.938462 11.815385-11.815385 5.907693z m-161.476923 445.046153c0-17.723077-13.784615-31.507692-31.507692-31.507692h-315.076923c-17.723077 0-31.507692 13.784615-31.507692 31.507692v31.507693c0 17.723077 13.784615 31.507692 31.507692 31.507692h315.076923c17.723077 0 31.507692-13.784615 31.507692-31.507692v-31.507693zM512 177.230769c0-17.723077-13.784615-31.507692-31.507692-31.507692h-173.292308c-17.723077 0-31.507692 13.784615-31.507692 31.507692v31.507693c0 17.723077 13.784615 31.507692 31.507692 31.507692h173.292308c17.723077 0 31.507692-13.784615 31.507692-31.507692v-31.507693z m47.261538 191.015385c0-17.723077-13.784615-31.507692-31.507692-31.507692H307.2c-17.723077 0-31.507692 13.784615-31.507692 31.507692v31.507692c0 17.723077 13.784615 31.507692 31.507692 31.507692h220.553846c17.723077 0 31.507692-13.784615 31.507692-31.507692v-31.507692z m415.507693 86.646154l-19.692308 19.692307c-11.815385 11.815385-31.507692 11.815385-43.323077 0L671.507692 226.461538c-1.969231 0-1.969231-3.938462-1.96923-3.938461v-53.169231c0-3.938462 0-7.876923 3.938461-7.876923h51.2c1.969231 0 3.938462 1.969231 5.907692 1.969231l242.215385 244.184615c15.753846 13.784615 15.753846 33.476923 1.969231 47.261539z"  horiz-adv-x="1024" />

    
    <glyph glyph-name="cai" unicode="&#59023;" d="M0.324216 351.873734V796.143333c0 42.502075 34.439126 76.943007 76.950232 76.943007h69.252138v-597.416871l-69.252138-0.727905C34.779598 274.939758 0.324216 309.378884 0.324216 351.873734zM906.401774 194.194666c-101.960909 0.643013-203.927236 1.295057-305.889952 1.936264 14.372063-50.5578 21.64389-95.465755 21.64389-135.014667 0-89.738243-78.615563-177.607053-157.128172-166.202603-69.225045 10.057012-76.829216 69.88612-76.829216 144.858545v67.689761c0 86.871778-72.916951 160.897746-157.451485 169.040169l-11.119068-0.106567V873.084534h602.566394c56.362979 0 104.7768-40.090776 115.278141-95.47298 28.068601-148.097091 56.146233-296.181539 84.21664-444.269599 12.045656-63.672736-29.79715-125.053384-93.46808-137.09904a116.62016 116.62016 0 0 0-21.819092-2.048249z"  horiz-adv-x="1024" />

    
    <glyph glyph-name="reward" unicode="&#59025;" d="M723.07624 656.643831c-17.756912-16.022945-37.442863-37.825781-59.070497-65.381416h113.237117c-1.647269-19.47643-2.470904-37.56388-2.470904-54.246094 0-15.421475 0.823635-35.150775 2.470904-59.184289h-64.286849v63.96715h-400.889703v-73.809222H247.777652c1.649075 25.021514 2.463679 46.39989 2.463679 64.120678 0 19.147699-0.814604 38.857131-2.463679 59.14997h123.073771c-19.606478 20.578222-38.48505 42.816357-56.632105 66.716211 16.066294 10.606102 32.139812 21.204979 48.2043 31.811081 24.736132-24.736132 46.50465-52.795702 65.303749-84.171485-15.240853-10.485085-27.548411-15.26614-36.904611-14.355807h90.760562c0 29.154137-0.807379 61.97128-2.431167 98.447819h66.718017c-1.621982-31.930291-2.429361-64.747435-2.429361-98.447819h59.106621c26.036608 38.282754 42.1896 69.477915 48.439108 93.587291 25.464037-11.84336 49.497551-21.244716 72.089704-28.204068zM715.699653 362.39675a953.32637 953.32637 0 0 1-2.47271-69.024555c0-23.643371 0.823635-47.476395 2.47271-71.500877h-64.281431V312.89919899999995H373.60229v-100.882597H309.315441c1.649075 28.348564 2.47271 53.830664 2.47271 76.448104 0 22.56506-0.825441 47.207269-2.47271 73.930238l406.384212 0.001806zM545.870168 286.46341800000005c-18.797293-55.826533-38.492275-92.304877-59.070497-109.445869-20.580028-17.142799-46.338479-31.984478-77.289801-44.516006-30.942291-12.54056-76.924945-22.957009-137.924481-31.245736-4.000769 17.209629-15.222791 37.590973-33.658841 61.153065 48.197075 1.988644 86.671288 6.571015 115.435283 13.763368 28.762188 7.186935 54.896331 19.398763 78.382561 36.62826 23.493455 17.236722 37.910673 48.249455 43.248043 93.041812 23.627115-6.457223 47.252424-12.921671 70.877733-19.378894zM688.637115 384.286285H336.377979c1.649075 26.697683 2.47271 49.723328 2.47271 69.069711 0 19.216335-0.825441 39.760239-2.47271 61.615456h352.259136v-130.685167z m-64.288656 47.026647v34.206124H400.664829v-34.206124h223.68363zM579.164152 246.77181499999995c77.50474-30.306503 141.881901-62.533014 193.133288-96.684951-16.057263-14.615902-30.292053-30.06447-42.70979-46.356541-36.377196 26.777156-97.703657 57.585787-183.993833 92.443956 13.393094 19.899085 24.578991 36.76192 33.570335 50.597536z"  horiz-adv-x="1024" />

    
    <glyph glyph-name="zan" unicode="&#58912;" d="M1020.377987 427.283934a84.323832 84.323832 0 0 1-53.615893 63.851873 150.6127 150.6127 0 0 1-48.741903 7.310985H660.175705c-11.210978 0-11.210978 0-9.748981 11.210978 5.361989 31.194938 9.748981 62.876875 16.084968 94.071812a237.859526 237.859526 0 0 1-4.87399 125.266751c-12.672975 37.043926-27.295946 73.112854-40.942919 109.669781a73.112854 73.112854 0 0 1-40.455919 45.32991 131.115739 131.115739 0 0 1-116.493768-3.412993 63.851873 63.851873 0 0 1-37.529925-61.413878c0-40.455919 0-80.911839 2.923994-121.367758a66.289868 66.289868 0 0 0-8.773982-37.043926c-31.194938-53.615893-53.615893-97.483806-86.272829-146.225709a349.966303 349.966303 0 0 0-32.169935-36.555927 93.096815 93.096815 0 0 1-35.58193-69.700861v-453.299097a82.373836 82.373836 0 0 1 81.886837-82.861835h445.501113a240.78452 240.78452 0 0 1 75.549849 9.74898 116.005769 116.005769 0 0 1 83.347834 105.281791 133.065735 133.065735 0 0 1-6.335987 57.515885 12.672975 12.672975 0 0 0 2.436995 9.747981 129.165743 129.165743 0 0 1 28.757943 86.759827 141.839717 141.839717 0 0 1-7.798985 33.144934 13.647973 13.647973 0 0 0 0 14.622971 119.417762 119.417762 0 0 1 28.757943 78.961842 281.728439 281.728439 0 0 1-8.285984 41.917917v10.235979a126.241749 126.241749 0 0 1 29.244942 61.414878V416.560955zM82.583855 457.016875h54.590892q82.373836 0 82.373836-82.373836v-420.155163q0-82.373836-82.373836-82.373836h-54.589892q-82.374836 0-82.374835 82.373836V374.643039q0 82.373836 82.373835 82.373836z"  horiz-adv-x="1024" />

    
    <glyph glyph-name="exchange" unicode="&#59105;" d="M512-76.79999999999995c-199.68 0-368.64 128-435.2 307.2H307.2v51.2H0v-307.2h51.2v184.32c81.92-168.96 256-286.72 460.8-286.72 245.76 0 455.68 174.08 501.76 409.6h-51.2c-46.08-204.8-230.4-358.4-450.56-358.4zM972.8 793.6v-184.32C890.88 778.24 716.8 896 512 896 266.24 896 56.32 721.92 10.24 486.4h51.2c46.08 204.8 230.4 358.4 450.56 358.4 199.68 0 368.64-128 435.2-307.2H716.8v-51.2h307.2V793.6h-51.2z"  horiz-adv-x="1024" />

    
    <glyph glyph-name="add" unicode="&#58945;" d="M906.212134 330.267014L565.732986 330.267014 565.732986-10.212133999999992C565.732986-30.01368500000001 541.666486-63.97199999999998 511.97312-63.97199999999998 482.297674-63.97199999999998 458.213254-30.01368500000001 458.213254-10.212133999999992L458.213254 330.267014 117.734106 330.267014C97.950475 330.267014 63.97424 354.33351400000004 63.97424 384.02688 63.97424 413.720246 97.950475 437.786746 117.734106 437.786746L458.213254 437.786746 458.213254 778.265894C458.213254 798.049525 482.297674 832.02576 511.97312 832.02576 541.666486 832.02576 565.732986 798.049525 565.732986 778.265894L565.732986 437.786746 906.212134 437.786746C925.995765 437.786746 959.972 413.720246 959.972 384.02688 959.972 354.33351400000004 925.995765 330.267014 906.212134 330.267014Z"  horiz-adv-x="1024" />

    
    <glyph glyph-name="right" unicode="&#59057;" d="M671.290311 384L243.428978 806.343111a52.110222 52.110222 0 0 0 0 74.296889 53.646222 53.646222 0 0 0 75.207111 0l427.861333-422.4 32.540445-32.085333c23.608889-23.324444 23.608889-61.041778 0-84.309334l-32.540445-32.142222-427.861333-422.286222a53.589333 53.589333 0 0 0-75.207111 0 52.053333 52.053333 0 0 0 0 74.24L671.233422 384"  horiz-adv-x="1024" />

    
    <glyph glyph-name="pinglun" unicode="&#58929;" d="M150.53952 844.8C67.3984 844.8 0 777.33376 0 694.15296l0-421.86624C0 189.07648 67.3984 121.6384 150.53952 121.6384l331.18336 0 240.86144-210.9504L722.58432 121.6384l150.53952 0c83.14624 0 150.53952 67.43808 150.53952 150.64704L1023.66336 694.15296C1023.66336 777.33376 956.27008 844.8 873.12384 844.8L150.53952 844.8z"  horiz-adv-x="1024" />

    
    <glyph glyph-name="pwd" unicode="&#58893;" d="M787.072 475.648H373.248V628.992c0 50.816 61.824 107.264 137.856 107.264 76.16 0 137.984-56.448 137.984-107.264v-45.952h0.512c3.712-25.984 25.984-45.952 52.992-45.952 27.136 0 49.408 19.968 53.12 45.952h0.64v45.952C756.352 747.52 646.528 843.52 511.104 843.52s-245.248-96-245.248-214.528v-153.216h-30.72c-50.688 0-91.904-41.216-91.904-91.904v-367.872c0-50.816 41.216-91.904 91.904-91.904h551.808c50.816 0 91.904 41.216 91.904 91.904V383.744c0.128 50.816-40.96 91.904-91.776 91.904z"  horiz-adv-x="1024" />

    
    <glyph glyph-name="zhuanshi" unicode="&#59434;" d="M1023.979 555.331c0 4.4-2.041 8.265-4.943 11.555l0.295 0.193-1.451 1.225a19.295 19.295 0 0 1-1.746 1.473L740.732 802.175l-0.318-0.192c-4.24 4.745-10.656 8.036-18.25 8.036H304.266c-7.594 0-14.011-3.291-18.25-8.036l-0.32 0.192-275.4-232.399c-0.637-0.478-1.18-0.936-1.746-1.473l-1.451-1.225 0.318-0.193C4.49 563.596 2.45 559.73 2.45 555.33c0-4.668 2.199-8.763 5.418-12.13l-0.248-0.171L495.169-44.73l0.248 0.192c4.262-4.459 10.496-7.462 17.798-7.462 7.301 0 13.535 3.003 17.797 7.462l0.249-0.192 487.547 587.76-0.249 0.172c3.22 3.366 5.42 7.46 5.42 12.128zM712.868 770.836l232.166-195.913H736.356L620.273 770.836h92.595z m-144.196 0L684.73 574.923H341.697l116.06 195.913h110.915z m-255.11 0h92.594L290.074 574.923H81.396L313.56 770.836zM70.196 535.74h216.815L449.64 78.327 70.197 535.74z m443.018-500.038L335.44 535.74h355.548L513.215 35.702z m63.574 42.625l162.63 457.413h216.815L576.789 78.327z"  horiz-adv-x="1024" />

    
    <glyph glyph-name="user" unicode="&#58882;" d="M496.417391 357.28695700000003c-144.695652 0-262.678261 117.982609-262.678261 262.67826S351.721739 882.643478 496.417391 882.643478c144.695652 0 262.678261-117.982609 262.678261-262.678261s-117.982609-262.678261-262.678261-262.67826zM972.8-30.052174000000036c-6.678261 62.330435-26.713043 153.6-95.721739 233.739131-60.104348 71.234783-142.469565 117.982609-249.321739 138.017391-40.069565-20.034783-86.817391-31.165217-133.565218-31.165218-48.973913 0-95.721739 11.130435-138.017391 33.391305-91.269565-20.034783-164.730435-64.556522-220.382609-135.791305-62.330435-80.13913-82.365217-173.634783-89.043478-238.191304-2.226087-22.26087 4.452174-42.295652 20.034783-60.104348 15.582609-15.582609 35.617391-24.486957 57.878261-24.486956h770.226087c22.26087 0 42.295652 8.904348 57.87826 24.486956 15.582609 17.808696 22.26087 37.843478 20.034783 60.104348z"  horiz-adv-x="1024" />

    
    <glyph glyph-name="pen" unicode="&#58902;" d="M70.127236-77.15363500000001S270.809762 632.822764 952.047717 896c0 0 11.343322-43.031637-30.411051-91.233153s-152.055255-152.055255-152.055255-152.055256-8.210984-43.670269 152.055255 30.411051c0 0-20.040883-154.913894-212.877358-182.466306 0 0-18.946085-19.219784 30.411052-30.411051 0 0 193.687984 44.734656 30.411051-91.233154 0 0-185.355356-95.004124-334.521562-121.644204-149.166206-26.640081-304.110511-364.932613-304.110511-364.932613s-56.71661-62.190599-60.822102 30.411051z"  horiz-adv-x="1024" />

    
    <glyph glyph-name="jewel" unicode="&#58911;" d="M658.09 878.25l116.737-188.757H410.624l120.49 188.758h126.977M1158.485 689.4929999999999H880.64L702.805 878.251h194.902l237.568-107.862c6.144-4.096 41.301-32.085 23.21-80.896M1149.61 628.395c-8.191-24.576-21.845-51.542-45.397-79.531l0.342-0.341L667.648-30.379999999999995l214.016 658.774h267.947M488.79 878.25L310.954 689.494H33.109c-20.138 53.248 23.894 81.92 23.894 81.92l-0.683-1.024L293.888 878.251h194.901M310.272 628.395L524.629-30.379999999999995 87.381 548.523c0.342 0 0.342 0 0.342 0.341-23.211 27.99-37.206 54.955-45.398 79.53h267.947M774.827 628.395l-177.494-751.958-186.709 751.958h364.203"  horiz-adv-x="1195" />

    
    <glyph glyph-name="love" unicode="&#58897;" d="M1045.333 778.667C919.467 902.4 716.8 906.667 584.533 789.333 452.267 906.667 249.6 902.4 123.733 778.667c-128-128-130.133-337.067-2.133-467.2l4.267-4.267 384-384c40.533-40.533 106.666-42.667 149.333-2.133l2.133 2.133 384 384c128 128 130.134 337.067 4.267 465.067-2.133 4.266-2.133 4.266-4.267 6.4z"  horiz-adv-x="1169" />

    
    <glyph glyph-name="compass" unicode="&#58892;" d="M512 744c-198.824 0-360-161.176-360-360s161.176-360 360-360 360 161.176 360 360-161.176 360-360 360z m0-681.432c-177.232 0-321.432 144.192-321.432 321.432S334.768 705.432 512 705.432 833.432 561.232 833.432 384 689.232 62.567999999999984 512 62.567999999999984zM703.784 578.8a9.12 9.12 0 0 1-11.576 1L469.192 425.904a9.608 9.608 0 0 1-1.304-1.104l-0.04 0.088-0.304-0.456a9.544 9.544 0 0 1-1.36-2.04L319.016 200.76a9.112 9.112 0 0 1 7.6-14.168c1.8 0 3.608 0.528 5.184 1.608l219.808 151.256c1.632 0.688 3.064 1.832 4.072 3.344l149.296 224.44a9.136 9.136 0 0 1-1.192 11.56zM396.248 267.24l86.848 130.416 42.904-41.056-129.752-89.36z"  horiz-adv-x="1024" />

    
    <glyph glyph-name="download" unicode="&#58944;" d="M760.889 16.875H263.11c-55.623 0-100.885 45.255-100.885 100.885V518.1510000000001c0 55.623 42.062 100.885 93.774 100.885h64v-59.54h-64c-18.553 0-34.226-18.93-34.226-41.338V117.75999999999999c0-22.791 18.546-41.337 41.337-41.337H760.89c22.791 0 41.337 18.546 41.337 41.337V518.1510000000001c0 22.407-15.673 41.337-34.226 41.337h-64v59.541h64c51.705 0 93.774-45.255 93.774-100.885v-400.398c0-55.616-45.262-100.871-100.885-100.871zM680.974 437.483c-10.617 11.577-28.615 12.352-40.185 1.728l-100.345-92.06V758.683c0 15.709-12.736 28.445-28.444 28.445s-28.444-12.736-28.444-28.445v-410.097l-95.296 90.31c-11.4 10.81-29.412 10.319-40.207-1.08-10.809-11.406-10.318-29.405 1.081-40.206L492.437 261.80999999999995c0.135-0.128 0.292-0.206 0.427-0.334 1.18-1.081 2.44-2.091 3.804-2.966 0.064-0.042 0.121-0.1 0.185-0.135 1.174-0.74 2.411-1.394 3.698-1.963 0.164-0.07 0.334-0.092 0.49-0.156 1.238-0.52 2.504-0.882 3.791-1.216 0.548-0.142 1.074-0.356 1.621-0.462a28.42 28.42 0 0 1 5.533-0.57c1.813 0 3.62 0.193 5.404 0.534 0.633 0.121 1.245 0.363 1.87 0.526 1.131 0.3 2.255 0.59 3.343 1.024 0.718 0.285 1.386 0.683 2.076 1.032 0.96 0.483 1.913 0.952 2.823 1.543 0.662 0.433 1.273 0.953 1.906 1.443 0.597 0.47 1.252 0.854 1.82 1.373l148.011 135.8c11.577 10.625 12.36 28.623 1.735 40.2z"  horiz-adv-x="1024" />

    
    <glyph glyph-name="Aa" unicode="&#58934;" d="M704 0H602.496l-72.512 210.24H233.856L165.376 0H64L334.848 768h98.24L704 0zM501.44 297.024L394.048 616.32c-3.392 10.176-7.04 28.096-11.008 53.504h-2.304c-3.392-23.168-7.232-40.96-11.456-53.504L262.72 297.024h238.72zM735.04 291.52C766.72 310.528 803.328 320 844.736 320c76.8 0 115.2-38.656 115.2-116.032v-196.736h-55.872v47.232h-1.408c-22.08-36.352-54.592-54.464-97.6-54.464-30.976 0-55.488 8-73.728 24.064-18.24 16-27.392 37.696-27.392 64.896 0 57.216 35.264 90.368 105.664 99.84l94.464 12.672c0 49.92-21.504 74.88-64.512 74.88-38.208 0-73.024-12.288-104.512-36.992v52.16z m94.464-140.672c-26.112-3.328-44.096-9.536-54.016-18.816-9.92-9.216-14.784-22.08-14.784-38.656 0-14.528 5.376-26.368 16.128-35.648 10.752-9.216 24.96-13.824 42.56-13.824 24.64 0 44.864 8.32 60.8 24.896 15.872 16.576 23.872 37.376 23.872 62.464v29.312l-74.56-9.728z"  horiz-adv-x="1024" />

    


  </font>
</defs>
</svg>
